<svg width="32" height="32" viewBox="0 0 32 32" fill="none" xmlns="http://www.w3.org/2000/svg">
<mask id="mask0_1027_28599" style="mask-type:alpha" maskUnits="userSpaceOnUse" x="0" y="0" width="32" height="32">
<rect width="32" height="32" fill="#D9D9D9"/>
</mask>
<g mask="url(#mask0_1027_28599)">
<path d="M9.33343 26.3333C8.35907 26.3333 7.52532 26.0039 6.83216 25.3449C6.13901 24.6859 5.76422 23.865 5.7078 22.8821H3.17963V14.036H6.78473L4.1796 11.4308L2.84626 12.7642L1.44116 11.3591L5.51293 7.2873L6.91803 8.69241L5.5847 10.0257L7.8873 12.3283L9.86163 6.51294H22.095L24.5898 13.9283H28.8206V22.8821H26.2924C26.236 23.865 25.8612 24.6859 25.168 25.3449C24.4749 26.0039 23.6411 26.3333 22.6668 26.3333C21.8138 26.3333 21.0612 26.0654 20.4091 25.5295C19.7569 24.9936 19.342 24.3128 19.1642 23.4872H12.836C12.6582 24.3128 12.2433 24.9936 11.5911 25.5295C10.939 26.0654 10.1864 26.3333 9.33343 26.3333ZM9.50776 13.8462H14.9745V8.51291H11.2744L9.50776 13.8462ZM16.9744 13.8462H22.4411L20.6745 8.51291H16.9744V13.8462ZM12.7847 21.4872H19.2155C19.4702 20.7471 19.9129 20.1475 20.5437 19.6885C21.1745 19.2296 21.8822 19.0001 22.6668 19.0001C23.3163 19.0001 23.9172 19.1578 24.4693 19.4731C25.0215 19.7885 25.4719 20.2171 25.8206 20.759H26.8206V15.8462H5.17956V20.759H6.1796C6.51977 20.2086 6.96806 19.7779 7.52446 19.4667C8.08086 19.1556 8.68385 19.0001 9.33343 19.0001C10.118 19.0001 10.8257 19.2296 11.4565 19.6885C12.0873 20.1475 12.53 20.7471 12.7847 21.4872ZM9.33343 24.3334C9.79667 24.3334 10.1903 24.1714 10.5142 23.8475C10.8382 23.5236 11.0001 23.13 11.0001 22.6667C11.0001 22.2035 10.8382 21.8099 10.5142 21.4859C10.1903 21.162 9.79667 21 9.33343 21C8.87019 21 8.47659 21.162 8.15263 21.4859C7.8287 21.8099 7.66673 22.2035 7.66673 22.6667C7.66673 23.13 7.8287 23.5236 8.15263 23.8475C8.47659 24.1714 8.87019 24.3334 9.33343 24.3334ZM22.6668 24.3334C23.13 24.3334 23.5236 24.1714 23.8476 23.8475C24.1715 23.5236 24.3335 23.13 24.3335 22.6667C24.3335 22.2035 24.1715 21.8099 23.8476 21.4859C23.5236 21.162 23.13 21 22.6668 21C22.2035 21 21.8099 21.162 21.486 21.4859C21.162 21.8099 21.0001 22.2035 21.0001 22.6667C21.0001 23.13 21.162 23.5236 21.486 23.8475C21.8099 24.1714 22.2035 24.3334 22.6668 24.3334Z" fill="#1C1B1F"/>
</g>
</svg>
