<svg width="32" height="32" viewBox="0 0 32 32" fill="none" xmlns="http://www.w3.org/2000/svg">
<mask id="mask0_991_23501" style="mask-type:alpha" maskUnits="userSpaceOnUse" x="0" y="0" width="32" height="32">
<rect width="32" height="32" fill="#D9D9D9"/>
</mask>
<g mask="url(#mask0_991_23501)">
<path d="M4.35365 27.6666V14.6051C3.81689 14.1641 3.41389 13.5919 3.14465 12.8885C2.87543 12.1851 2.86987 11.4257 3.12798 10.6103L4.47671 6.20514C4.65449 5.64447 4.9562 5.19234 5.38185 4.84874C5.80749 4.50516 6.31604 4.33337 6.90748 4.33337H25.1074C25.6989 4.33337 26.204 4.49748 26.6228 4.82568C27.0416 5.15388 27.3468 5.60515 27.5382 6.17951L28.9126 10.6103C29.1707 11.4257 29.1651 12.1825 28.8959 12.8808C28.6267 13.5791 28.2237 14.1624 27.6869 14.6308V27.6666H4.35365ZM18.9536 13.6667C19.6818 13.6667 20.2293 13.4441 20.5959 12.9987C20.9626 12.5535 21.1126 12.0753 21.0459 11.5641L20.2357 6.33331H17.0203V11.6C17.0203 12.1607 17.21 12.6453 17.5895 13.0539C17.969 13.4624 18.4237 13.6667 18.9536 13.6667ZM12.9536 13.6667C13.5673 13.6667 14.0652 13.4624 14.4472 13.0539C14.8293 12.6453 15.0203 12.1607 15.0203 11.6V6.33331H11.8049L10.9946 11.6154C10.9228 12.0889 11.0716 12.5492 11.4408 12.9962C11.81 13.4432 12.3143 13.6667 12.9536 13.6667ZM7.02028 13.6667C7.5143 13.6667 7.9391 13.4945 8.29468 13.15C8.65024 12.8056 8.86989 12.3727 8.95365 11.8513L9.73828 6.33331H6.90748C6.76217 6.33331 6.64678 6.36536 6.56131 6.42947C6.47583 6.49359 6.41171 6.58975 6.36898 6.71797L5.08695 11.0564C4.91086 11.6291 4.99376 12.2073 5.33565 12.791C5.67754 13.3748 6.23908 13.6667 7.02028 13.6667ZM25.0203 13.6667C25.7417 13.6667 26.2938 13.3834 26.6767 12.8167C27.0596 12.25 27.1519 11.6633 26.9536 11.0564L25.6049 6.69231C25.5622 6.56411 25.4981 6.47222 25.4126 6.41664C25.3271 6.36109 25.2118 6.33331 25.0664 6.33331H22.3023L23.0869 11.8513C23.1707 12.3727 23.3904 12.8056 23.7459 13.15C24.1015 13.4945 24.5263 13.6667 25.0203 13.6667ZM6.35361 25.6667H25.687V15.5487C25.5417 15.6017 25.4203 15.6346 25.3229 15.6474C25.2254 15.6602 25.1246 15.6666 25.0203 15.6666C24.4203 15.6666 23.8925 15.5581 23.4369 15.341C22.9814 15.1239 22.5399 14.7761 22.1126 14.2974C21.7383 14.7145 21.2955 15.047 20.7844 15.2948C20.2733 15.5427 19.6904 15.6666 19.0357 15.6666C18.4699 15.6666 17.9365 15.5491 17.4357 15.3141C16.9348 15.079 16.463 14.7401 16.0203 14.2974C15.6083 14.7401 15.1417 15.079 14.6203 15.3141C14.0989 15.5491 13.5707 15.6666 13.0357 15.6666C12.434 15.6666 11.8699 15.5577 11.3434 15.3397C10.8169 15.1218 10.3536 14.7743 9.95361 14.2974C9.39292 14.8581 8.87626 15.2265 8.40361 15.4025C7.93097 15.5786 7.46986 15.6666 7.02028 15.6666C6.91601 15.6666 6.80833 15.6602 6.69721 15.6474C6.58608 15.6346 6.47155 15.6017 6.35361 15.5487V25.6667Z" fill="#1C1B1F"/>
</g>
</svg>
